<svg width="1363" height="163" viewBox="0 0 1363 163" fill="none" xmlns="http://www.w3.org/2000/svg">
<g clip-path="url(#clip0_340_1202)">
<path d="M0 15C0 6.71573 6.71573 0 15 0H37V163H15C6.71573 163 0 156.284 0 148V15Z" fill="#10403B"/>
<path d="M1134 0H37V163H1134V0Z" fill="#F0F0F0"/>
<path d="M118.594 98.422V104.75H101.086V98.422H118.594ZM103.828 84.8751V119H95.6016V84.8751H103.828ZM124.125 84.8751V119H115.922V84.8751H124.125ZM127.992 106.578V106.086C127.992 104.227 128.258 102.516 128.789 100.953C129.32 99.3751 130.102 98.0079 131.133 96.8517C132.164 95.6954 133.438 94.7969 134.953 94.1562C136.469 93.5001 138.219 93.172 140.203 93.172C142.203 93.172 143.961 93.5001 145.477 94.1562C147.008 94.7969 148.289 95.6954 149.32 96.8517C150.352 98.0079 151.133 99.3751 151.664 100.953C152.195 102.516 152.461 104.227 152.461 106.086V106.578C152.461 108.422 152.195 110.133 151.664 111.711C151.133 113.273 150.352 114.641 149.32 115.812C148.289 116.969 147.016 117.867 145.5 118.508C143.984 119.148 142.234 119.469 140.25 119.469C138.266 119.469 136.508 119.148 134.977 118.508C133.445 117.867 132.164 116.969 131.133 115.812C130.102 114.641 129.32 113.273 128.789 111.711C128.258 110.133 127.992 108.422 127.992 106.578ZM135.891 106.086V106.578C135.891 107.531 135.961 108.422 136.102 109.25C136.242 110.078 136.477 110.805 136.805 111.43C137.133 112.039 137.578 112.516 138.141 112.859C138.703 113.203 139.406 113.375 140.25 113.375C141.078 113.375 141.766 113.203 142.312 112.859C142.875 112.516 143.32 112.039 143.648 111.43C143.977 110.805 144.211 110.078 144.352 109.25C144.492 108.422 144.562 107.531 144.562 106.578V106.086C144.562 105.164 144.492 104.297 144.352 103.484C144.211 102.656 143.977 101.93 143.648 101.305C143.32 100.664 142.875 100.164 142.312 99.8048C141.75 99.4454 141.047 99.2657 140.203 99.2657C139.375 99.2657 138.68 99.4454 138.117 99.8048C137.57 100.164 137.133 100.664 136.805 101.305C136.477 101.93 136.242 102.656 136.102 103.484C135.961 104.297 135.891 105.164 135.891 106.086ZM163.688 111.453L168.375 93.6407H173.32L171.562 102.57L166.922 119H162.961L163.688 111.453ZM161.836 93.6407L164.742 111.312L165.07 119H160.266L154.266 93.6407H161.836ZM177.492 110.938L180.422 93.6407H187.992L182.039 119H177.234L177.492 110.938ZM173.883 93.6407L178.617 111.406L179.344 119H175.336L170.789 102.617L169.102 93.6407H173.883ZM218.297 84.8751V119H210.07V84.8751H218.297ZM228.562 84.8751V91.2267H200.039V84.8751H228.562ZM225.773 106.578V106.086C225.773 104.227 226.039 102.516 226.57 100.953C227.102 99.3751 227.883 98.0079 228.914 96.8517C229.945 95.6954 231.219 94.7969 232.734 94.1562C234.25 93.5001 236 93.172 237.984 93.172C239.984 93.172 241.742 93.5001 243.258 94.1562C244.789 94.7969 246.07 95.6954 247.102 96.8517C248.133 98.0079 248.914 99.3751 249.445 100.953C249.977 102.516 250.242 104.227 250.242 106.086V106.578C250.242 108.422 249.977 110.133 249.445 111.711C248.914 113.273 248.133 114.641 247.102 115.812C246.07 116.969 244.797 117.867 243.281 118.508C241.766 119.148 240.016 119.469 238.031 119.469C236.047 119.469 234.289 119.148 232.758 118.508C231.227 117.867 229.945 116.969 228.914 115.812C227.883 114.641 227.102 113.273 226.57 111.711C226.039 110.133 225.773 108.422 225.773 106.578ZM233.672 106.086V106.578C233.672 107.531 233.742 108.422 233.883 109.25C234.023 110.078 234.258 110.805 234.586 111.43C234.914 112.039 235.359 112.516 235.922 112.859C236.484 113.203 237.188 113.375 238.031 113.375C238.859 113.375 239.547 113.203 240.094 112.859C240.656 112.516 241.102 112.039 241.43 111.43C241.758 110.805 241.992 110.078 242.133 109.25C242.273 108.422 242.344 107.531 242.344 106.578V106.086C242.344 105.164 242.273 104.297 242.133 103.484C241.992 102.656 241.758 101.93 241.43 101.305C241.102 100.664 240.656 100.164 240.094 99.8048C239.531 99.4454 238.828 99.2657 237.984 99.2657C237.156 99.2657 236.461 99.4454 235.898 99.8048C235.352 100.164 234.914 100.664 234.586 101.305C234.258 101.93 234.023 102.656 233.883 103.484C233.742 104.297 233.672 105.164 233.672 106.086ZM266.086 84.8751H279.516C282.141 84.8751 284.422 85.2657 286.359 86.047C288.297 86.8282 289.789 87.9845 290.836 89.5157C291.898 91.047 292.43 92.9376 292.43 95.1876C292.43 97.1407 292.125 98.7735 291.516 100.086C290.906 101.398 290.055 102.484 288.961 103.344C287.883 104.188 286.625 104.883 285.188 105.43L282.492 106.953H271.219L271.172 100.602H279.516C280.562 100.602 281.43 100.414 282.117 100.039C282.805 99.6642 283.32 99.1329 283.664 98.4454C284.023 97.7423 284.203 96.9063 284.203 95.9376C284.203 94.9532 284.023 94.1094 283.664 93.4062C283.305 92.7031 282.773 92.1642 282.07 91.7892C281.383 91.4142 280.531 91.2267 279.516 91.2267H274.312V119H266.086V84.8751ZM284.766 119L277.219 103.906L285.938 103.859L293.578 118.648V119H284.766ZM311.836 112.836V93.6407H319.758V119H312.352L311.836 112.836ZM312.586 107.68L314.648 107.633C314.648 109.336 314.445 110.914 314.039 112.367C313.633 113.805 313.031 115.055 312.234 116.117C311.453 117.18 310.484 118.008 309.328 118.602C308.188 119.18 306.867 119.469 305.367 119.469C304.117 119.469 302.969 119.297 301.922 118.953C300.891 118.594 300 118.039 299.25 117.289C298.5 116.523 297.914 115.547 297.492 114.359C297.086 113.156 296.883 111.719 296.883 110.047V93.6407H304.781V110.094C304.781 110.656 304.852 111.141 304.992 111.547C305.133 111.953 305.336 112.297 305.602 112.578C305.867 112.844 306.195 113.047 306.586 113.188C306.992 113.312 307.453 113.375 307.969 113.375C309.156 113.375 310.086 113.125 310.758 112.625C311.43 112.125 311.898 111.445 312.164 110.586C312.445 109.727 312.586 108.758 312.586 107.68ZM331.875 99.0548V119H323.977V93.6407H331.383L331.875 99.0548ZM330.938 105.453L329.086 105.5C329.086 103.562 329.32 101.836 329.789 100.32C330.258 98.7892 330.922 97.4923 331.781 96.4298C332.641 95.3673 333.664 94.5626 334.852 94.0157C336.055 93.4532 337.391 93.172 338.859 93.172C340.031 93.172 341.102 93.3439 342.07 93.6876C343.055 94.0313 343.898 94.586 344.602 95.3517C345.32 96.1173 345.867 97.1329 346.242 98.3985C346.633 99.6485 346.828 101.195 346.828 103.039V119H338.883V103.016C338.883 102 338.742 101.227 338.461 100.695C338.18 100.148 337.773 99.7735 337.242 99.5704C336.711 99.3673 336.062 99.2657 335.297 99.2657C334.484 99.2657 333.797 99.422 333.234 99.7345C332.672 100.047 332.219 100.484 331.875 101.047C331.547 101.594 331.305 102.242 331.148 102.992C331.008 103.742 330.938 104.562 330.938 105.453ZM363.773 108.195H357.047C357.047 106.82 357.141 105.609 357.328 104.562C357.531 103.5 357.875 102.547 358.359 101.703C358.844 100.859 359.5 100.078 360.328 99.3595C361.062 98.7501 361.695 98.1642 362.227 97.6017C362.758 97.0392 363.164 96.4689 363.445 95.8907C363.727 95.3126 363.867 94.6954 363.867 94.0392C363.867 93.2267 363.75 92.5626 363.516 92.047C363.297 91.5313 362.961 91.1485 362.508 90.8985C362.07 90.6329 361.516 90.5001 360.844 90.5001C360.297 90.5001 359.781 90.6329 359.297 90.8985C358.828 91.1642 358.445 91.5782 358.148 92.1407C357.852 92.6876 357.688 93.4142 357.656 94.3204H349.711C349.758 91.9923 350.273 90.1017 351.258 88.6485C352.258 87.1798 353.586 86.1095 355.242 85.4376C356.914 84.7501 358.781 84.4062 360.844 84.4062C363.125 84.4062 365.086 84.7579 366.727 85.461C368.367 86.1642 369.625 87.211 370.5 88.6017C371.375 89.9767 371.812 91.672 371.812 93.6876C371.812 95.0313 371.555 96.2032 371.039 97.2032C370.539 98.1876 369.859 99.1095 369 99.9689C368.156 100.812 367.211 101.719 366.164 102.688C365.258 103.484 364.641 104.297 364.312 105.125C363.984 105.938 363.805 106.961 363.773 108.195ZM356.086 115.32C356.086 114.195 356.492 113.258 357.305 112.508C358.117 111.742 359.172 111.359 360.469 111.359C361.766 111.359 362.82 111.742 363.633 112.508C364.445 113.258 364.852 114.195 364.852 115.32C364.852 116.445 364.445 117.391 363.633 118.156C362.82 118.906 361.766 119.281 360.469 119.281C359.172 119.281 358.117 118.906 357.305 118.156C356.492 117.391 356.086 116.445 356.086 115.32Z" fill="black"/>
<path d="M1134 0H1348C1356.28 0 1363 6.71573 1363 15V148C1363 156.284 1356.28 163 1348 163H1134V0Z" fill="#127369"/>
<path d="M1260.62 78.8077C1263.81 78.8077 1266.93 79.7551 1269.59 81.5301C1272.25 83.3051 1274.32 85.828 1275.54 88.7797C1276.76 91.7314 1277.08 94.9794 1276.46 98.113C1275.84 101.247 1274.3 104.125 1272.04 106.384C1269.78 108.643 1266.9 110.182 1263.77 110.805C1260.63 111.428 1257.39 111.108 1254.43 109.886C1251.48 108.663 1248.96 106.593 1247.18 103.936C1245.41 101.28 1244.46 98.1564 1244.46 94.9615C1244.46 90.6773 1246.16 86.5685 1249.19 83.5391C1252.22 80.5096 1256.33 78.8077 1260.62 78.8077ZM1260.62 73.4231C1256.36 73.4231 1252.19 74.6863 1248.65 77.053C1245.11 79.4197 1242.35 82.7835 1240.72 86.7191C1239.09 90.6548 1238.66 94.9854 1239.49 99.1635C1240.32 103.342 1242.37 107.179 1245.39 110.192C1248.4 113.204 1252.24 115.255 1256.41 116.086C1260.59 116.917 1264.92 116.491 1268.86 114.861C1272.79 113.23 1276.16 110.47 1278.52 106.928C1280.89 103.386 1282.15 99.2214 1282.15 94.9615C1282.15 89.2492 1279.88 83.7708 1275.85 79.7316C1271.81 75.6923 1266.33 73.4231 1260.62 73.4231Z" fill="white"/>
<path d="M1274.08 46.5H1220.23C1218.8 46.5 1217.43 47.0673 1216.42 48.0772C1215.41 49.087 1214.85 50.4566 1214.85 51.8846V105.731C1214.85 107.159 1215.41 108.528 1216.42 109.538C1217.43 110.548 1218.8 111.115 1220.23 111.115H1231V105.731H1220.23V68.0384H1279.46V51.8846C1279.46 50.4566 1278.89 49.087 1277.88 48.0772C1276.87 47.0673 1275.5 46.5 1274.08 46.5ZM1220.23 62.6538V51.8846H1274.08V62.6538H1220.23Z" fill="white"/>
<path d="M1255.23 86.8848V103.039L1268.69 94.9617L1255.23 86.8848Z" fill="white"/>
<path d="M106.977 54.4766L95.9766 59.3203V56.1562L103.508 53.1328L103.406 53.2969V52.9062L103.508 53.0703L95.9766 50.0469V46.8828L106.977 51.7266V54.4766ZM118.326 45L122.193 57.1562H122.342L126.217 45H129.967L124.451 61H120.092L114.568 45H118.326ZM131.83 61V49H135.158V61H131.83ZM133.502 47.4531C133.007 47.4531 132.583 47.2891 132.229 46.9609C131.88 46.6276 131.705 46.2292 131.705 45.7656C131.705 45.3073 131.88 44.9141 132.229 44.5859C132.583 44.2526 133.007 44.0859 133.502 44.0859C133.997 44.0859 134.419 44.2526 134.768 44.5859C135.122 44.9141 135.299 45.3073 135.299 45.7656C135.299 46.2292 135.122 46.6276 134.768 46.9609C134.419 47.2891 133.997 47.4531 133.502 47.4531ZM144.207 49V51.5H136.98V49H144.207ZM138.621 46.125H141.949V57.3125C141.949 57.6198 141.996 57.8594 142.09 58.0312C142.184 58.1979 142.314 58.3151 142.48 58.3828C142.652 58.4505 142.85 58.4844 143.074 58.4844C143.23 58.4844 143.387 58.4714 143.543 58.4453C143.699 58.4141 143.819 58.3906 143.902 58.375L144.426 60.8516C144.259 60.9036 144.025 60.9635 143.723 61.0313C143.421 61.1042 143.053 61.1484 142.621 61.1641C141.819 61.1953 141.116 61.0885 140.512 60.8437C139.913 60.599 139.447 60.2187 139.113 59.7031C138.78 59.1875 138.616 58.5365 138.621 57.75V46.125ZM149.797 61.2266C149.031 61.2266 148.349 61.0938 147.75 60.8281C147.151 60.5573 146.677 60.1589 146.328 59.6328C145.984 59.1016 145.813 58.4401 145.813 57.6484C145.813 56.9818 145.935 56.4219 146.18 55.9687C146.424 55.5156 146.758 55.151 147.18 54.875C147.602 54.599 148.081 54.3906 148.617 54.25C149.159 54.1094 149.727 54.0104 150.32 53.9531C151.018 53.8802 151.581 53.8125 152.008 53.75C152.435 53.6823 152.745 53.5833 152.938 53.4531C153.13 53.3229 153.227 53.1302 153.227 52.875V52.8281C153.227 52.3333 153.07 51.9505 152.758 51.6797C152.451 51.4089 152.013 51.2734 151.445 51.2734C150.846 51.2734 150.37 51.4062 150.016 51.6719C149.661 51.9323 149.427 52.2604 149.313 52.6562L146.234 52.4062C146.391 51.6771 146.698 51.0469 147.156 50.5156C147.615 49.9792 148.206 49.5677 148.93 49.2812C149.659 48.9896 150.503 48.8438 151.461 48.8438C152.128 48.8438 152.766 48.9219 153.375 49.0781C153.99 49.2344 154.534 49.4766 155.008 49.8047C155.487 50.1328 155.865 50.5547 156.141 51.0703C156.417 51.5807 156.555 52.1927 156.555 52.9062V61H153.398V59.3359H153.305C153.112 59.7109 152.854 60.0417 152.531 60.3281C152.208 60.6094 151.82 60.8307 151.367 60.9922C150.914 61.1484 150.391 61.2266 149.797 61.2266ZM150.75 58.9297C151.24 58.9297 151.672 58.8333 152.047 58.6406C152.422 58.4427 152.716 58.1771 152.93 57.8438C153.143 57.5104 153.25 57.1328 153.25 56.7109V55.4375C153.146 55.5052 153.003 55.5677 152.82 55.625C152.643 55.6771 152.443 55.7266 152.219 55.7734C151.995 55.8151 151.771 55.8542 151.547 55.8906C151.323 55.9219 151.12 55.9505 150.938 55.9766C150.547 56.0339 150.206 56.125 149.914 56.25C149.622 56.375 149.396 56.5443 149.234 56.7578C149.073 56.9661 148.992 57.2266 148.992 57.5391C148.992 57.9922 149.156 58.3385 149.484 58.5781C149.818 58.8125 150.24 58.9297 150.75 58.9297ZM162.465 45V61H159.137V45H162.465ZM165.131 61V49H168.459V61H165.131ZM166.803 47.4531C166.308 47.4531 165.883 47.2891 165.529 46.9609C165.18 46.6276 165.006 46.2292 165.006 45.7656C165.006 45.3073 165.18 44.9141 165.529 44.5859C165.883 44.2526 166.308 44.0859 166.803 44.0859C167.298 44.0859 167.719 44.2526 168.068 44.5859C168.423 44.9141 168.6 45.3073 168.6 45.7656C168.6 46.2292 168.423 46.6276 168.068 46.9609C167.719 47.2891 167.298 47.4531 166.803 47.4531ZM177.508 49V51.5H170.281V49H177.508ZM171.922 46.125H175.25V57.3125C175.25 57.6198 175.297 57.8594 175.391 58.0312C175.484 58.1979 175.615 58.3151 175.781 58.3828C175.953 58.4505 176.151 58.4844 176.375 58.4844C176.531 58.4844 176.688 58.4714 176.844 58.4453C177 58.4141 177.12 58.3906 177.203 58.375L177.727 60.8516C177.56 60.9036 177.326 60.9635 177.023 61.0313C176.721 61.1042 176.354 61.1484 175.922 61.1641C175.12 61.1953 174.417 61.0885 173.813 60.8437C173.214 60.599 172.747 60.2187 172.414 59.7031C172.081 59.1875 171.917 58.5365 171.922 57.75V46.125ZM181.73 65.5C181.309 65.5 180.913 65.4661 180.543 65.3984C180.178 65.3359 179.876 65.2552 179.637 65.1562L180.387 62.6719C180.777 62.7917 181.129 62.8568 181.441 62.8672C181.759 62.8776 182.033 62.8047 182.262 62.6484C182.496 62.4922 182.686 62.2266 182.832 61.8516L183.027 61.3438L178.723 49H182.223L184.707 57.8125H184.832L187.34 49H190.863L186.199 62.2969C185.975 62.9427 185.671 63.5052 185.285 63.9844C184.905 64.4688 184.423 64.8411 183.84 65.1016C183.257 65.3672 182.553 65.5 181.73 65.5Z" fill="#888888"/>
</g>
<defs>
<clipPath id="clip0_340_1202">
<rect width="1363" height="163" fill="white"/>
</clipPath>
</defs>
</svg>
