<svg width="1363" height="297" viewBox="0 0 1363 297" fill="none" xmlns="http://www.w3.org/2000/svg">
<g clip-path="url(#clip0_340_1207)">
<path d="M0 15C0 6.71573 6.71573 0 15 0H37V297H15C6.71573 297 0 290.284 0 282V15Z" fill="#10403B"/>
<path d="M37 0H1066V297H37V0Z" fill="#F0F0F0"/>
<path d="M1000 178H103C97.4772 178 93 182.477 93 188V245C93 250.523 97.4772 255 103 255H1000C1005.52 255 1010 250.523 1010 245V188C1010 182.477 1005.52 178 1000 178Z" fill="#D3D3D3"/>
<path d="M256 196H114C112.343 196 111 197.343 111 199V234C111 235.657 112.343 237 114 237H256C257.657 237 259 235.657 259 234V199C259 197.343 257.657 196 256 196Z" fill="#424242"/>
<path d="M134.234 210.203H139.271C140.255 210.203 141.11 210.35 141.837 210.643C142.563 210.936 143.123 211.369 143.516 211.943C143.914 212.518 144.113 213.227 144.113 214.07C144.113 214.803 143.999 215.415 143.771 215.907C143.542 216.399 143.223 216.807 142.812 217.129C142.408 217.445 141.937 217.706 141.397 217.911L140.387 218.482H136.159L136.142 216.101H139.271C139.663 216.101 139.988 216.03 140.246 215.89C140.504 215.749 140.697 215.55 140.826 215.292C140.961 215.028 141.028 214.715 141.028 214.352C141.028 213.982 140.961 213.666 140.826 213.402C140.691 213.139 140.492 212.937 140.229 212.796C139.971 212.655 139.651 212.585 139.271 212.585H137.319V223H134.234V210.203ZM141.239 223L138.409 217.34L141.679 217.322L144.544 222.868V223H141.239ZM150.441 223.176C149.668 223.176 148.977 223.056 148.367 222.815C147.758 222.569 147.242 222.232 146.82 221.805C146.404 221.377 146.085 220.885 145.862 220.328C145.646 219.771 145.537 219.183 145.537 218.562V218.228C145.537 217.53 145.634 216.886 145.827 216.294C146.021 215.696 146.308 215.175 146.688 214.729C147.069 214.284 147.547 213.938 148.121 213.692C148.695 213.44 149.363 213.314 150.125 213.314C150.799 213.314 151.402 213.423 151.936 213.64C152.469 213.856 152.92 214.167 153.289 214.571C153.664 214.976 153.948 215.465 154.142 216.039C154.341 216.613 154.44 217.258 154.44 217.973V219.177H146.671V217.322H151.549V217.094C151.555 216.777 151.499 216.508 151.382 216.285C151.271 216.062 151.106 215.893 150.89 215.775C150.673 215.658 150.409 215.6 150.099 215.6C149.776 215.6 149.51 215.67 149.299 215.811C149.094 215.951 148.933 216.145 148.815 216.391C148.704 216.631 148.625 216.909 148.578 217.226C148.531 217.542 148.508 217.876 148.508 218.228V218.562C148.508 218.913 148.555 219.232 148.648 219.52C148.748 219.807 148.889 220.053 149.07 220.258C149.258 220.457 149.48 220.612 149.738 220.724C150.002 220.835 150.301 220.891 150.635 220.891C151.039 220.891 151.438 220.814 151.83 220.662C152.223 220.51 152.56 220.258 152.841 219.906L154.186 221.506C153.992 221.781 153.717 222.048 153.359 222.306C153.008 222.563 152.586 222.774 152.094 222.938C151.602 223.097 151.051 223.176 150.441 223.176ZM160.584 220.609V216.689C160.584 216.42 160.546 216.188 160.47 215.995C160.394 215.802 160.273 215.652 160.109 215.547C159.945 215.436 159.726 215.38 159.45 215.38C159.228 215.38 159.037 215.418 158.879 215.494C158.721 215.57 158.601 215.685 158.519 215.837C158.437 215.989 158.396 216.183 158.396 216.417H155.434C155.434 215.978 155.53 215.57 155.724 215.195C155.923 214.814 156.204 214.483 156.567 214.202C156.937 213.921 157.376 213.704 157.886 213.552C158.401 213.394 158.976 213.314 159.608 213.314C160.364 213.314 161.038 213.44 161.63 213.692C162.228 213.944 162.699 214.322 163.045 214.826C163.391 215.324 163.563 215.951 163.563 216.707V220.601C163.563 221.222 163.599 221.693 163.669 222.016C163.739 222.332 163.839 222.61 163.968 222.851V223H160.997C160.856 222.707 160.751 222.35 160.681 221.928C160.616 221.5 160.584 221.061 160.584 220.609ZM160.944 217.19L160.962 218.772H159.652C159.377 218.772 159.143 218.811 158.949 218.887C158.762 218.963 158.609 219.068 158.492 219.203C158.381 219.332 158.299 219.479 158.246 219.643C158.199 219.807 158.176 219.979 158.176 220.161C158.176 220.337 158.217 220.495 158.299 220.636C158.387 220.771 158.504 220.876 158.65 220.952C158.797 221.028 158.961 221.066 159.143 221.066C159.471 221.066 159.749 221.005 159.978 220.882C160.212 220.753 160.391 220.598 160.514 220.416C160.637 220.234 160.698 220.064 160.698 219.906L161.349 221.119C161.231 221.354 161.097 221.591 160.944 221.831C160.798 222.071 160.613 222.294 160.391 222.499C160.174 222.698 159.907 222.862 159.591 222.991C159.274 223.114 158.891 223.176 158.439 223.176C157.854 223.176 157.314 223.056 156.822 222.815C156.336 222.575 155.946 222.241 155.653 221.813C155.36 221.38 155.214 220.882 155.214 220.319C155.214 219.827 155.302 219.388 155.478 219.001C155.659 218.614 155.932 218.286 156.295 218.017C156.658 217.747 157.121 217.542 157.684 217.401C158.246 217.261 158.908 217.19 159.67 217.19H160.944ZM169.224 220.891C169.499 220.891 169.733 220.841 169.927 220.741C170.126 220.636 170.275 220.489 170.375 220.302C170.48 220.108 170.53 219.877 170.524 219.607H173.311C173.316 220.322 173.141 220.949 172.783 221.488C172.432 222.021 171.951 222.438 171.342 222.736C170.738 223.029 170.056 223.176 169.294 223.176C168.55 223.176 167.899 223.056 167.343 222.815C166.786 222.569 166.32 222.229 165.945 221.796C165.576 221.356 165.298 220.844 165.11 220.258C164.929 219.672 164.838 219.036 164.838 218.351V218.148C164.838 217.463 164.929 216.827 165.11 216.241C165.298 215.649 165.576 215.137 165.945 214.703C166.32 214.264 166.783 213.924 167.334 213.684C167.891 213.438 168.538 213.314 169.276 213.314C170.067 213.314 170.765 213.464 171.368 213.763C171.978 214.062 172.455 214.495 172.801 215.063C173.146 215.632 173.316 216.32 173.311 217.129H170.524C170.53 216.842 170.486 216.584 170.393 216.355C170.299 216.127 170.152 215.945 169.953 215.811C169.76 215.67 169.511 215.6 169.206 215.6C168.901 215.6 168.655 215.667 168.468 215.802C168.28 215.937 168.137 216.124 168.037 216.364C167.943 216.599 167.879 216.868 167.844 217.173C167.814 217.478 167.8 217.803 167.8 218.148V218.351C167.8 218.702 167.814 219.033 167.844 219.344C167.879 219.648 167.946 219.918 168.046 220.152C168.146 220.381 168.289 220.562 168.477 220.697C168.664 220.826 168.913 220.891 169.224 220.891ZM179.586 213.49V215.547H173.855V213.49H179.586ZM175.06 211.126H178.021V219.897C178.021 220.149 178.051 220.346 178.109 220.486C178.168 220.621 178.268 220.718 178.408 220.776C178.555 220.829 178.748 220.855 178.988 220.855C179.158 220.855 179.299 220.853 179.41 220.847C179.521 220.835 179.627 220.82 179.727 220.803V222.921C179.475 223.003 179.211 223.064 178.936 223.105C178.66 223.152 178.367 223.176 178.057 223.176C177.424 223.176 176.882 223.076 176.431 222.877C175.985 222.678 175.646 222.364 175.411 221.937C175.177 221.509 175.06 220.952 175.06 220.267V211.126ZM196.074 210.203V223H192.998L188.472 215.037V223H185.387V210.203H188.472L192.998 218.166V210.203H196.074ZM202.824 220.609V216.689C202.824 216.42 202.786 216.188 202.71 215.995C202.634 215.802 202.514 215.652 202.35 215.547C202.186 215.436 201.966 215.38 201.69 215.38C201.468 215.38 201.277 215.418 201.119 215.494C200.961 215.57 200.841 215.685 200.759 215.837C200.677 215.989 200.636 216.183 200.636 216.417H197.674C197.674 215.978 197.771 215.57 197.964 215.195C198.163 214.814 198.444 214.483 198.808 214.202C199.177 213.921 199.616 213.704 200.126 213.552C200.642 213.394 201.216 213.314 201.849 213.314C202.604 213.314 203.278 213.44 203.87 213.692C204.468 213.944 204.939 214.322 205.285 214.826C205.631 215.324 205.804 215.951 205.804 216.707V220.601C205.804 221.222 205.839 221.693 205.909 222.016C205.979 222.332 206.079 222.61 206.208 222.851V223H203.237C203.097 222.707 202.991 222.35 202.921 221.928C202.856 221.5 202.824 221.061 202.824 220.609ZM203.185 217.19L203.202 218.772H201.893C201.617 218.772 201.383 218.811 201.189 218.887C201.002 218.963 200.85 219.068 200.732 219.203C200.621 219.332 200.539 219.479 200.486 219.643C200.439 219.807 200.416 219.979 200.416 220.161C200.416 220.337 200.457 220.495 200.539 220.636C200.627 220.771 200.744 220.876 200.891 220.952C201.037 221.028 201.201 221.066 201.383 221.066C201.711 221.066 201.989 221.005 202.218 220.882C202.452 220.753 202.631 220.598 202.754 220.416C202.877 220.234 202.938 220.064 202.938 219.906L203.589 221.119C203.472 221.354 203.337 221.591 203.185 221.831C203.038 222.071 202.854 222.294 202.631 222.499C202.414 222.698 202.147 222.862 201.831 222.991C201.515 223.114 201.131 223.176 200.68 223.176C200.094 223.176 199.555 223.056 199.062 222.815C198.576 222.575 198.187 222.241 197.894 221.813C197.601 221.38 197.454 220.882 197.454 220.319C197.454 219.827 197.542 219.388 197.718 219.001C197.899 218.614 198.172 218.286 198.535 218.017C198.898 217.747 199.361 217.542 199.924 217.401C200.486 217.261 201.148 217.19 201.91 217.19H203.185ZM212.457 213.49V215.547H206.727V213.49H212.457ZM207.931 211.126H210.893V219.897C210.893 220.149 210.922 220.346 210.98 220.486C211.039 220.621 211.139 220.718 211.279 220.776C211.426 220.829 211.619 220.855 211.859 220.855C212.029 220.855 212.17 220.853 212.281 220.847C212.393 220.835 212.498 220.82 212.598 220.803V222.921C212.346 223.003 212.082 223.064 211.807 223.105C211.531 223.152 211.238 223.176 210.928 223.176C210.295 223.176 209.753 223.076 209.302 222.877C208.856 222.678 208.517 222.364 208.282 221.937C208.048 221.509 207.931 220.952 207.931 220.267V211.126ZM216.764 213.49V223H213.793V213.49H216.764ZM213.617 211.038C213.617 210.616 213.77 210.271 214.074 210.001C214.379 209.731 214.774 209.597 215.261 209.597C215.747 209.597 216.143 209.731 216.447 210.001C216.752 210.271 216.904 210.616 216.904 211.038C216.904 211.46 216.752 211.806 216.447 212.075C216.143 212.345 215.747 212.479 215.261 212.479C214.774 212.479 214.379 212.345 214.074 212.075C213.77 211.806 213.617 211.46 213.617 211.038ZM222.02 220.97L223.892 213.49H227.012L223.9 223H222.055L222.02 220.97ZM220.912 213.49L222.758 220.97L222.74 223H220.886L217.783 213.49H220.912ZM232.373 223.176C231.6 223.176 230.908 223.056 230.299 222.815C229.689 222.569 229.174 222.232 228.752 221.805C228.336 221.377 228.017 220.885 227.794 220.328C227.577 219.771 227.469 219.183 227.469 218.562V218.228C227.469 217.53 227.565 216.886 227.759 216.294C227.952 215.696 228.239 215.175 228.62 214.729C229.001 214.284 229.479 213.938 230.053 213.692C230.627 213.44 231.295 213.314 232.057 213.314C232.73 213.314 233.334 213.423 233.867 213.64C234.4 213.856 234.852 214.167 235.221 214.571C235.596 214.976 235.88 215.465 236.073 216.039C236.272 216.613 236.372 217.258 236.372 217.973V219.177H228.603V217.322H233.48V217.094C233.486 216.777 233.431 216.508 233.313 216.285C233.202 216.062 233.038 215.893 232.821 215.775C232.604 215.658 232.341 215.6 232.03 215.6C231.708 215.6 231.441 215.67 231.23 215.811C231.025 215.951 230.864 216.145 230.747 216.391C230.636 216.631 230.557 216.909 230.51 217.226C230.463 217.542 230.439 217.876 230.439 218.228V218.562C230.439 218.913 230.486 219.232 230.58 219.52C230.68 219.807 230.82 220.053 231.002 220.258C231.189 220.457 231.412 220.612 231.67 220.724C231.934 220.835 232.232 220.891 232.566 220.891C232.971 220.891 233.369 220.814 233.762 220.662C234.154 220.51 234.491 220.258 234.772 219.906L236.117 221.506C235.924 221.781 235.648 222.048 235.291 222.306C234.939 222.563 234.518 222.774 234.025 222.938C233.533 223.097 232.982 223.176 232.373 223.176Z" fill="white"/>
<path d="M256 196H114C112.343 196 111 197.343 111 199V234C111 235.657 112.343 237 114 237H256C257.657 237 259 235.657 259 234V199C259 197.343 257.657 196 256 196Z" stroke="#424242" stroke-width="4"/>
<path d="M535 196H432C430.343 196 429 197.343 429 199V234C429 235.657 430.343 237 432 237H535C536.657 237 538 235.657 538 234V199C538 197.343 536.657 196 535 196Z" fill="#424242"/>
<path d="M395 196H292C290.343 196 289 197.343 289 199V234C289 235.657 290.343 237 292 237H395C396.657 237 398 235.657 398 234V199C398 197.343 396.657 196 395 196Z" fill="#424242"/>
<path d="M463.118 210.203V223H460.042L455.516 215.037V223H452.431V210.203H455.516L460.042 218.166V210.203H463.118ZM464.56 218.342V218.157C464.56 217.46 464.659 216.818 464.858 216.232C465.058 215.641 465.351 215.128 465.737 214.694C466.124 214.261 466.602 213.924 467.17 213.684C467.738 213.438 468.395 213.314 469.139 213.314C469.889 213.314 470.548 213.438 471.116 213.684C471.69 213.924 472.171 214.261 472.558 214.694C472.944 215.128 473.237 215.641 473.437 216.232C473.636 216.818 473.735 217.46 473.735 218.157V218.342C473.735 219.033 473.636 219.675 473.437 220.267C473.237 220.853 472.944 221.365 472.558 221.805C472.171 222.238 471.693 222.575 471.125 222.815C470.557 223.056 469.9 223.176 469.156 223.176C468.412 223.176 467.753 223.056 467.179 222.815C466.604 222.575 466.124 222.238 465.737 221.805C465.351 221.365 465.058 220.853 464.858 220.267C464.659 219.675 464.56 219.033 464.56 218.342ZM467.521 218.157V218.342C467.521 218.699 467.548 219.033 467.601 219.344C467.653 219.654 467.741 219.927 467.864 220.161C467.987 220.39 468.154 220.568 468.365 220.697C468.576 220.826 468.84 220.891 469.156 220.891C469.467 220.891 469.725 220.826 469.93 220.697C470.141 220.568 470.308 220.39 470.431 220.161C470.554 219.927 470.642 219.654 470.694 219.344C470.747 219.033 470.773 218.699 470.773 218.342V218.157C470.773 217.812 470.747 217.486 470.694 217.182C470.642 216.871 470.554 216.599 470.431 216.364C470.308 216.124 470.141 215.937 469.93 215.802C469.719 215.667 469.455 215.6 469.139 215.6C468.828 215.6 468.567 215.667 468.356 215.802C468.151 215.937 467.987 216.124 467.864 216.364C467.741 216.599 467.653 216.871 467.601 217.182C467.548 217.486 467.521 217.812 467.521 218.157ZM480.521 220.82V209.5H483.5V223H480.828L480.521 220.82ZM474.685 218.359V218.175C474.685 217.454 474.764 216.798 474.922 216.206C475.08 215.608 475.314 215.096 475.625 214.668C475.936 214.234 476.322 213.9 476.785 213.666C477.248 213.432 477.781 213.314 478.385 213.314C478.924 213.314 479.396 213.44 479.8 213.692C480.204 213.938 480.55 214.284 480.837 214.729C481.124 215.175 481.358 215.696 481.54 216.294C481.722 216.886 481.859 217.524 481.953 218.21V218.43C481.859 219.074 481.722 219.684 481.54 220.258C481.358 220.826 481.124 221.33 480.837 221.77C480.55 222.209 480.201 222.555 479.791 222.807C479.387 223.053 478.912 223.176 478.367 223.176C477.764 223.176 477.23 223.056 476.768 222.815C476.311 222.575 475.927 222.238 475.616 221.805C475.312 221.371 475.08 220.861 474.922 220.275C474.764 219.689 474.685 219.051 474.685 218.359ZM477.646 218.175V218.359C477.646 218.717 477.67 219.048 477.717 219.353C477.764 219.657 477.843 219.927 477.954 220.161C478.071 220.39 478.224 220.568 478.411 220.697C478.604 220.826 478.842 220.891 479.123 220.891C479.504 220.891 479.817 220.8 480.063 220.618C480.315 220.437 480.5 220.179 480.617 219.845C480.74 219.511 480.793 219.118 480.775 218.667V217.973C480.787 217.586 480.761 217.246 480.696 216.953C480.632 216.654 480.529 216.405 480.389 216.206C480.254 216.007 480.081 215.857 479.87 215.758C479.665 215.652 479.422 215.6 479.141 215.6C478.865 215.6 478.631 215.664 478.438 215.793C478.25 215.922 478.098 216.104 477.98 216.338C477.863 216.566 477.778 216.839 477.726 217.155C477.673 217.466 477.646 217.806 477.646 218.175ZM489.784 223.176C489.011 223.176 488.319 223.056 487.71 222.815C487.101 222.569 486.585 222.232 486.163 221.805C485.747 221.377 485.428 220.885 485.205 220.328C484.988 219.771 484.88 219.183 484.88 218.562V218.228C484.88 217.53 484.977 216.886 485.17 216.294C485.363 215.696 485.65 215.175 486.031 214.729C486.412 214.284 486.89 213.938 487.464 213.692C488.038 213.44 488.706 213.314 489.468 213.314C490.142 213.314 490.745 213.423 491.278 213.64C491.812 213.856 492.263 214.167 492.632 214.571C493.007 214.976 493.291 215.465 493.484 216.039C493.684 216.613 493.783 217.258 493.783 217.973V219.177H486.014V217.322H490.892V217.094C490.897 216.777 490.842 216.508 490.725 216.285C490.613 216.062 490.449 215.893 490.232 215.775C490.016 215.658 489.752 215.6 489.441 215.6C489.119 215.6 488.853 215.67 488.642 215.811C488.437 215.951 488.275 216.145 488.158 216.391C488.047 216.631 487.968 216.909 487.921 217.226C487.874 217.542 487.851 217.876 487.851 218.228V218.562C487.851 218.913 487.897 219.232 487.991 219.52C488.091 219.807 488.231 220.053 488.413 220.258C488.601 220.457 488.823 220.612 489.081 220.724C489.345 220.835 489.644 220.891 489.978 220.891C490.382 220.891 490.78 220.814 491.173 220.662C491.565 220.51 491.902 220.258 492.184 219.906L493.528 221.506C493.335 221.781 493.06 222.048 492.702 222.306C492.351 222.563 491.929 222.774 491.437 222.938C490.944 223.097 490.394 223.176 489.784 223.176ZM500.217 218.983V210.203H503.293V218.983C503.293 219.839 503.097 220.58 502.704 221.207C502.317 221.834 501.79 222.32 501.122 222.666C500.46 223.006 499.716 223.176 498.89 223.176C498.034 223.176 497.272 223.032 496.604 222.745C495.942 222.458 495.421 222.016 495.04 221.418C494.665 220.82 494.478 220.059 494.478 219.133H497.571C497.571 219.566 497.621 219.906 497.721 220.152C497.82 220.393 497.967 220.562 498.16 220.662C498.359 220.756 498.603 220.803 498.89 220.803C499.171 220.803 499.408 220.732 499.602 220.592C499.801 220.445 499.953 220.237 500.059 219.968C500.164 219.692 500.217 219.364 500.217 218.983ZM511.845 219.599C511.845 219.399 511.815 219.221 511.757 219.062C511.698 218.898 511.59 218.746 511.432 218.605C511.273 218.465 511.045 218.324 510.746 218.184C510.453 218.037 510.066 217.885 509.586 217.727C509.023 217.539 508.481 217.328 507.96 217.094C507.438 216.854 506.973 216.575 506.562 216.259C506.152 215.937 505.827 215.562 505.587 215.134C505.347 214.7 505.227 214.196 505.227 213.622C505.227 213.071 505.35 212.576 505.596 212.137C505.842 211.691 506.185 211.313 506.624 211.003C507.069 210.687 507.591 210.446 508.188 210.282C508.786 210.112 509.439 210.027 510.148 210.027C511.086 210.027 511.912 210.191 512.627 210.52C513.348 210.842 513.91 211.302 514.314 211.899C514.725 212.491 514.93 213.191 514.93 214H511.862C511.862 213.678 511.795 213.394 511.66 213.147C511.531 212.901 511.335 212.708 511.071 212.567C510.808 212.427 510.477 212.356 510.078 212.356C509.691 212.356 509.366 212.415 509.103 212.532C508.839 212.649 508.64 212.808 508.505 213.007C508.37 213.2 508.303 213.414 508.303 213.648C508.303 213.842 508.355 214.018 508.461 214.176C508.572 214.328 508.728 214.472 508.927 214.606C509.132 214.741 509.378 214.87 509.665 214.993C509.958 215.116 510.286 215.236 510.649 215.354C511.329 215.57 511.933 215.813 512.46 216.083C512.993 216.347 513.441 216.648 513.805 216.988C514.174 217.322 514.452 217.703 514.64 218.131C514.833 218.559 514.93 219.042 514.93 219.581C514.93 220.155 514.818 220.665 514.596 221.11C514.373 221.556 514.054 221.934 513.638 222.244C513.222 222.549 512.724 222.78 512.144 222.938C511.563 223.097 510.916 223.176 510.201 223.176C509.545 223.176 508.897 223.094 508.259 222.93C507.626 222.76 507.052 222.502 506.536 222.156C506.021 221.805 505.607 221.356 505.297 220.812C504.992 220.261 504.84 219.607 504.84 218.852H507.934C507.934 219.227 507.983 219.543 508.083 219.801C508.183 220.059 508.329 220.267 508.522 220.425C508.716 220.577 508.953 220.688 509.234 220.759C509.516 220.823 509.838 220.855 510.201 220.855C510.594 220.855 510.91 220.8 511.15 220.688C511.391 220.571 511.566 220.419 511.678 220.231C511.789 220.038 511.845 219.827 511.845 219.599Z" fill="white"/>
<path d="M535 196H432C430.343 196 429 197.343 429 199V234C429 235.657 430.343 237 432 237H535C536.657 237 538 235.657 538 234V199C538 197.343 536.657 196 535 196Z" stroke="#424242" stroke-width="4"/>
<path d="M1066 0H1348C1356.28 0 1363 6.71573 1363 15V282C1363 290.284 1356.28 297 1348 297H1066V0Z" fill="white"/>
<path d="M307.264 209.455H311.057L315.062 219.227H315.233L319.239 209.455H323.031V224H320.048V214.533H319.928L316.163 223.929H314.132L310.368 214.497H310.247V224H307.264V209.455ZM327.376 228.091C326.993 228.091 326.633 228.06 326.297 227.999C325.965 227.942 325.69 227.868 325.473 227.778L326.154 225.52C326.51 225.629 326.829 225.688 327.113 225.697C327.402 225.707 327.651 225.641 327.859 225.499C328.072 225.357 328.245 225.115 328.377 224.774L328.555 224.312L324.642 213.091H327.824L330.082 221.102H330.196L332.475 213.091H335.679L331.439 225.179C331.235 225.766 330.958 226.277 330.608 226.713C330.262 227.153 329.824 227.492 329.294 227.729C328.763 227.97 328.124 228.091 327.376 228.091ZM345.174 213.638C345.118 213.065 344.874 212.62 344.443 212.303C344.012 211.985 343.427 211.827 342.689 211.827C342.187 211.827 341.763 211.898 341.417 212.04C341.072 212.177 340.806 212.369 340.622 212.615C340.442 212.861 340.352 213.141 340.352 213.453C340.342 213.714 340.397 213.941 340.515 214.135C340.638 214.329 340.806 214.497 341.02 214.639C341.233 214.777 341.479 214.897 341.758 215.001C342.038 215.101 342.336 215.186 342.653 215.257L343.96 215.57C344.594 215.712 345.177 215.901 345.707 216.138C346.237 216.375 346.697 216.666 347.085 217.011C347.473 217.357 347.774 217.764 347.987 218.233C348.205 218.702 348.316 219.239 348.321 219.845C348.316 220.735 348.089 221.507 347.639 222.161C347.194 222.809 346.55 223.313 345.707 223.673C344.869 224.028 343.858 224.206 342.674 224.206C341.5 224.206 340.477 224.026 339.606 223.666C338.74 223.306 338.063 222.774 337.575 222.068C337.092 221.358 336.839 220.48 336.815 219.433H339.791C339.824 219.921 339.964 220.328 340.21 220.655C340.461 220.977 340.795 221.221 341.211 221.386C341.633 221.547 342.109 221.628 342.639 221.628C343.16 221.628 343.612 221.552 343.995 221.401C344.384 221.249 344.684 221.038 344.897 220.768C345.11 220.499 345.217 220.188 345.217 219.838C345.217 219.511 345.12 219.237 344.926 219.014C344.736 218.792 344.457 218.602 344.088 218.446C343.723 218.29 343.276 218.148 342.745 218.02L341.162 217.622C339.935 217.324 338.967 216.857 338.257 216.223C337.547 215.589 337.194 214.734 337.199 213.659C337.194 212.778 337.428 212.009 337.902 211.351C338.38 210.693 339.036 210.179 339.869 209.81C340.702 209.44 341.649 209.256 342.71 209.256C343.789 209.256 344.732 209.44 345.537 209.81C346.346 210.179 346.976 210.693 347.426 211.351C347.876 212.009 348.108 212.771 348.122 213.638H345.174ZM355.879 218.943H358.493L359.807 220.634L361.099 222.139L363.536 225.193H360.666L358.99 223.134L358.131 221.912L355.879 218.943ZM363.756 216.727C363.756 218.313 363.455 219.663 362.854 220.776C362.257 221.888 361.443 222.738 360.411 223.325C359.383 223.908 358.228 224.199 356.945 224.199C355.652 224.199 354.492 223.905 353.464 223.318C352.437 222.731 351.625 221.881 351.028 220.768C350.432 219.656 350.134 218.309 350.134 216.727C350.134 215.141 350.432 213.792 351.028 212.679C351.625 211.566 352.437 210.719 353.464 210.136C354.492 209.549 355.652 209.256 356.945 209.256C358.228 209.256 359.383 209.549 360.411 210.136C361.443 210.719 362.257 211.566 362.854 212.679C363.455 213.792 363.756 215.141 363.756 216.727ZM360.638 216.727C360.638 215.7 360.484 214.833 360.176 214.128C359.873 213.422 359.445 212.887 358.891 212.523C358.337 212.158 357.688 211.976 356.945 211.976C356.201 211.976 355.553 212.158 354.999 212.523C354.445 212.887 354.014 213.422 353.706 214.128C353.403 214.833 353.251 215.7 353.251 216.727C353.251 217.755 353.403 218.621 353.706 219.327C354.014 220.032 354.445 220.567 354.999 220.932C355.553 221.296 356.201 221.479 356.945 221.479C357.688 221.479 358.337 221.296 358.891 220.932C359.445 220.567 359.873 220.032 360.176 219.327C360.484 218.621 360.638 217.755 360.638 216.727ZM366.034 224V209.455H369.109V221.464H375.345V224H366.034Z" fill="white"/>
<path d="M106.21 110.364L115.969 142.324H116.331L126.089 110.364H137.893L123.17 154H109.129L94.4062 110.364H106.21ZM142.592 154V121.273H153.011V154H142.592ZM147.812 117.459C146.349 117.459 145.092 116.976 144.04 116.01C142.989 115.03 142.464 113.851 142.464 112.473C142.464 111.109 142.989 109.945 144.04 108.979C145.092 107.999 146.349 107.509 147.812 107.509C149.289 107.509 150.546 107.999 151.583 108.979C152.634 109.945 153.16 111.109 153.16 112.473C153.16 113.851 152.634 115.03 151.583 116.01C150.546 116.976 149.289 117.459 147.812 117.459ZM178.115 121.273V128.943H157.469V121.273H178.115ZM161.794 113.432H172.213V143.709C172.213 144.348 172.313 144.866 172.512 145.264C172.725 145.648 173.03 145.925 173.428 146.095C173.826 146.251 174.301 146.33 174.855 146.33C175.253 146.33 175.672 146.294 176.113 146.223C176.567 146.138 176.908 146.067 177.135 146.01L178.712 153.531C178.215 153.673 177.512 153.851 176.603 154.064C175.708 154.277 174.635 154.412 173.385 154.469C170.942 154.582 168.847 154.298 167.1 153.616C165.367 152.92 164.039 151.841 163.115 150.378C162.206 148.915 161.766 147.075 161.794 144.859V113.432ZM192.657 154.554C190.569 154.554 188.716 154.206 187.096 153.51C185.491 152.8 184.22 151.734 183.282 150.314C182.359 148.879 181.897 147.082 181.897 144.923C181.897 143.105 182.217 141.571 182.856 140.321C183.495 139.071 184.376 138.055 185.498 137.274C186.62 136.493 187.913 135.903 189.376 135.506C190.839 135.094 192.402 134.817 194.064 134.675C195.924 134.504 197.423 134.327 198.559 134.142C199.696 133.943 200.52 133.666 201.031 133.311C201.556 132.942 201.819 132.423 201.819 131.756V131.649C201.819 130.555 201.443 129.71 200.69 129.114C199.937 128.517 198.922 128.219 197.643 128.219C196.265 128.219 195.157 128.517 194.319 129.114C193.481 129.71 192.949 130.534 192.721 131.585L183.112 131.244C183.396 129.256 184.127 127.48 185.306 125.918C186.5 124.341 188.133 123.105 190.207 122.21C192.295 121.301 194.802 120.847 197.728 120.847C199.816 120.847 201.741 121.095 203.502 121.592C205.264 122.075 206.798 122.786 208.105 123.723C209.412 124.646 210.42 125.783 211.13 127.132C211.855 128.482 212.217 130.023 212.217 131.756V154H202.416V149.44H202.16C201.578 150.548 200.832 151.486 199.923 152.253C199.028 153.02 197.97 153.595 196.748 153.979C195.541 154.362 194.177 154.554 192.657 154.554ZM195.875 147.736C196.997 147.736 198.005 147.509 198.9 147.054C199.809 146.599 200.534 145.974 201.074 145.179C201.613 144.369 201.883 143.432 201.883 142.366V139.256C201.585 139.412 201.223 139.554 200.797 139.682C200.385 139.81 199.93 139.93 199.433 140.044C198.936 140.158 198.424 140.257 197.899 140.342C197.373 140.428 196.869 140.506 196.386 140.577C195.406 140.733 194.568 140.974 193.872 141.301C193.19 141.628 192.664 142.054 192.295 142.58C191.94 143.091 191.762 143.702 191.762 144.412C191.762 145.491 192.146 146.315 192.913 146.884C193.694 147.452 194.681 147.736 195.875 147.736ZM229.007 110.364V154H218.588V110.364H229.007ZM235.638 154V121.273H246.058V154H235.638ZM240.859 117.459C239.396 117.459 238.138 116.976 237.087 116.01C236.036 115.03 235.511 113.851 235.511 112.473C235.511 111.109 236.036 109.945 237.087 108.979C238.138 107.999 239.396 107.509 240.859 107.509C242.336 107.509 243.593 107.999 244.63 108.979C245.681 109.945 246.207 111.109 246.207 112.473C246.207 113.851 245.681 115.03 244.63 116.01C243.593 116.976 242.336 117.459 240.859 117.459ZM271.162 121.273V128.943H250.516V121.273H271.162ZM254.841 113.432H265.26V143.709C265.26 144.348 265.36 144.866 265.559 145.264C265.772 145.648 266.077 145.925 266.475 146.095C266.873 146.251 267.348 146.33 267.902 146.33C268.3 146.33 268.719 146.294 269.159 146.223C269.614 146.138 269.955 146.067 270.182 146.01L271.759 153.531C271.262 153.673 270.559 153.851 269.65 154.064C268.755 154.277 267.682 154.412 266.432 154.469C263.989 154.582 261.894 154.298 260.147 153.616C258.414 152.92 257.086 151.841 256.162 150.378C255.253 148.915 254.813 147.075 254.841 144.859V113.432ZM282.849 166.273C281.599 166.273 280.42 166.173 279.312 165.974C278.204 165.79 277.252 165.541 276.457 165.229L278.758 157.665C279.781 158.006 280.704 158.205 281.528 158.261C282.366 158.318 283.083 158.183 283.68 157.857C284.291 157.544 284.76 156.983 285.086 156.173L285.491 155.193L273.858 121.273H284.767L290.797 144.625H291.137L297.252 121.273H308.225L295.889 157.132C295.292 158.922 294.447 160.499 293.353 161.862C292.274 163.24 290.875 164.32 289.156 165.101C287.451 165.882 285.349 166.273 282.849 166.273Z" fill="black"/>
<path d="M109.021 48.8661C108.922 47.8635 108.495 47.0846 107.741 46.5295C106.987 45.9743 105.963 45.6967 104.671 45.6967C103.792 45.6967 103.051 45.821 102.446 46.0696C101.841 46.3099 101.377 46.6455 101.054 47.0763C100.739 47.5072 100.582 47.9961 100.582 48.543C100.565 48.9987 100.66 49.3964 100.868 49.7362C101.083 50.0759 101.377 50.37 101.75 50.6186C102.123 50.8589 102.554 51.0702 103.043 51.2525C103.531 51.4265 104.054 51.5756 104.609 51.6999L106.896 52.2468C108.006 52.4954 109.025 52.8268 109.953 53.2411C110.881 53.6554 111.685 54.165 112.364 54.7699C113.044 55.3748 113.57 56.0874 113.943 56.9077C114.324 57.728 114.519 58.6684 114.527 59.729C114.519 61.2868 114.121 62.6374 113.334 63.7809C112.555 64.9161 111.428 65.7985 109.953 66.4283C108.487 67.0497 106.717 67.3604 104.646 67.3604C102.591 67.3604 100.801 67.0456 99.2766 66.4158C97.7603 65.7861 96.5754 64.8539 95.7219 63.6193C94.8768 62.3764 94.4335 60.8394 94.392 59.0082H99.5998C99.6578 59.8616 99.9022 60.5742 100.333 61.146C100.772 61.7094 101.356 62.1361 102.086 62.4261C102.823 62.7079 103.656 62.8487 104.584 62.8487C105.495 62.8487 106.287 62.7161 106.958 62.451C107.637 62.1858 108.163 61.8171 108.536 61.3448C108.909 60.8725 109.096 60.3298 109.096 59.7166C109.096 59.1449 108.926 58.6643 108.586 58.2749C108.254 57.8854 107.766 57.554 107.119 57.2805C106.481 57.0071 105.698 56.7585 104.77 56.5348L101.999 55.8388C99.8525 55.3168 98.158 54.5006 96.9151 53.3903C95.6722 52.2799 95.0549 50.7843 95.0632 48.9034C95.0549 47.3622 95.4651 46.0157 96.2937 44.864C97.1306 43.7122 98.2782 42.8132 99.7365 42.1669C101.195 41.5206 102.852 41.1974 104.708 41.1974C106.597 41.1974 108.246 41.5206 109.655 42.1669C111.072 42.8132 112.174 43.7122 112.961 44.864C113.748 46.0157 114.154 47.3498 114.179 48.8661H109.021ZM123.491 67.3604C122.273 67.3604 121.188 67.1491 120.235 66.7266C119.282 66.2957 118.528 65.6618 117.973 64.8249C117.426 63.9798 117.153 62.9274 117.153 61.668C117.153 60.6074 117.347 59.7166 117.737 58.9957C118.126 58.2749 118.657 57.6948 119.328 57.2557C119.999 56.8165 120.761 56.4851 121.615 56.2614C122.476 56.0376 123.38 55.8802 124.324 55.7891C125.434 55.6731 126.329 55.5653 127.009 55.4659C127.688 55.3582 128.181 55.2008 128.488 54.9936C128.794 54.7865 128.948 54.4799 128.948 54.0739V53.9993C128.948 53.2121 128.699 52.6031 128.202 52.1722C127.713 51.7414 127.017 51.5259 126.114 51.5259C125.161 51.5259 124.403 51.7372 123.839 52.1598C123.276 52.5741 122.903 53.0961 122.721 53.7259L117.824 53.3281C118.072 52.1681 118.561 51.1655 119.29 50.3203C120.02 49.4669 120.96 48.8123 122.112 48.3565C123.272 47.8925 124.614 47.6605 126.139 47.6605C127.199 47.6605 128.214 47.7848 129.184 48.0334C130.162 48.282 131.027 48.6673 131.782 49.1893C132.544 49.7113 133.145 50.3825 133.584 51.2028C134.023 52.0148 134.242 52.9884 134.242 54.1236V67H129.221V64.3526H129.072C128.765 64.9492 128.355 65.4754 127.842 65.9311C127.328 66.3786 126.71 66.7307 125.99 66.9876C125.269 67.2362 124.436 67.3604 123.491 67.3604ZM125.008 63.7063C125.787 63.7063 126.474 63.553 127.071 63.2464C127.668 62.9316 128.136 62.509 128.475 61.9787C128.815 61.4484 128.985 60.8477 128.985 60.1765V58.1506C128.819 58.2583 128.591 58.3577 128.301 58.4489C128.02 58.5317 127.701 58.6104 127.344 58.685C126.988 58.7513 126.632 58.8134 126.275 58.8714C125.919 58.9212 125.596 58.9667 125.306 59.0082C124.685 59.0993 124.142 59.2443 123.678 59.4432C123.214 59.642 122.853 59.9113 122.597 60.2511C122.34 60.5825 122.211 60.9968 122.211 61.494C122.211 62.2148 122.472 62.7659 122.994 63.147C123.525 63.5199 124.196 63.7063 125.008 63.7063ZM147.051 67.3729C145.087 67.3729 143.396 66.9751 141.979 66.1797C140.571 65.3759 139.485 64.2408 138.723 62.7741C137.961 61.2992 137.58 59.555 137.58 57.5415C137.58 55.5778 137.961 53.8543 138.723 52.3711C139.485 50.8879 140.558 49.732 141.942 48.9034C143.334 48.0748 144.967 47.6605 146.839 47.6605C148.099 47.6605 149.271 47.8635 150.357 48.2695C151.45 48.6673 152.403 49.268 153.215 50.0717C154.036 50.8755 154.674 51.8864 155.129 53.1044C155.585 54.3142 155.813 55.7311 155.813 57.3551V58.8093H139.693V55.5281H150.829C150.829 54.7657 150.663 54.0904 150.332 53.5021C150 52.9138 149.54 52.454 148.952 52.1225C148.372 51.7828 147.697 51.6129 146.926 51.6129C146.122 51.6129 145.41 51.7994 144.788 52.1722C144.175 52.5368 143.695 53.0298 143.347 53.6513C142.999 54.2644 142.821 54.948 142.812 55.7021V58.8217C142.812 59.7663 142.986 60.5825 143.334 61.2702C143.691 61.958 144.192 62.4883 144.838 62.8612C145.484 63.234 146.251 63.4205 147.138 63.4205C147.726 63.4205 148.264 63.3376 148.753 63.1719C149.242 63.0062 149.661 62.7576 150.009 62.4261C150.357 62.0947 150.622 61.6887 150.804 61.2081L155.701 61.5312C155.453 62.7079 154.943 63.7353 154.172 64.6136C153.41 65.4837 152.424 66.1631 151.214 66.652C150.013 67.1326 148.625 67.3729 147.051 67.3729ZM159.268 67V47.9091H164.401V51.2401H164.6C164.948 50.0552 165.532 49.1603 166.353 48.5554C167.173 47.9422 168.118 47.6357 169.187 47.6357C169.452 47.6357 169.738 47.6522 170.044 47.6854C170.351 47.7185 170.62 47.7641 170.852 47.8221V52.5202C170.603 52.4457 170.26 52.3794 169.82 52.3214C169.381 52.2634 168.979 52.2344 168.615 52.2344C167.836 52.2344 167.14 52.4042 166.527 52.744C165.922 53.0754 165.441 53.5394 165.085 54.136C164.737 54.7326 164.563 55.4203 164.563 56.1992V67H159.268ZM181.79 67V41.5455H198.941V45.9826H187.171V52.0479H198.059V56.4851H187.171V62.5629H198.991V67H181.79ZM208.415 41.5455V67H203.121V41.5455H208.415ZM220.857 41.5455H227.494L234.504 58.6477H234.802L241.812 41.5455H248.449V67H243.229V50.4322H243.018L236.43 66.8757H232.876L226.288 50.37H226.077V67H220.857V41.5455ZM258.228 67.3604C257.01 67.3604 255.924 67.1491 254.971 66.7266C254.018 66.2957 253.264 65.6618 252.709 64.8249C252.162 63.9798 251.889 62.9274 251.889 61.668C251.889 60.6074 252.084 59.7166 252.473 58.9957C252.863 58.2749 253.393 57.6948 254.064 57.2557C254.735 56.8165 255.497 56.4851 256.351 56.2614C257.213 56.0376 258.116 55.8802 259.06 55.7891C260.171 55.6731 261.066 55.5653 261.745 55.4659C262.425 55.3582 262.918 55.2008 263.224 54.9936C263.531 54.7865 263.684 54.4799 263.684 54.0739V53.9993C263.684 53.2121 263.435 52.6031 262.938 52.1722C262.449 51.7414 261.753 51.5259 260.85 51.5259C259.897 51.5259 259.139 51.7372 258.576 52.1598C258.012 52.5741 257.639 53.0961 257.457 53.7259L252.56 53.3281C252.809 52.1681 253.298 51.1655 254.027 50.3203C254.756 49.4669 255.696 48.8123 256.848 48.3565C258.008 47.8925 259.35 47.6605 260.875 47.6605C261.936 47.6605 262.951 47.7848 263.92 48.0334C264.898 48.282 265.764 48.6673 266.518 49.1893C267.28 49.7113 267.881 50.3825 268.32 51.2028C268.759 52.0148 268.979 52.9884 268.979 54.1236V67H263.957V64.3526H263.808C263.502 64.9492 263.092 65.4754 262.578 65.9311C262.064 66.3786 261.447 66.7307 260.726 66.9876C260.005 67.2362 259.172 67.3604 258.228 67.3604ZM259.744 63.7063C260.523 63.7063 261.211 63.553 261.807 63.2464C262.404 62.9316 262.872 62.509 263.212 61.9787C263.551 61.4484 263.721 60.8477 263.721 60.1765V58.1506C263.556 58.2583 263.328 58.3577 263.038 58.4489C262.756 58.5317 262.437 58.6104 262.081 58.685C261.724 58.7513 261.368 58.8134 261.012 58.8714C260.656 58.9212 260.332 58.9667 260.042 59.0082C259.421 59.0993 258.878 59.2443 258.414 59.4432C257.95 59.642 257.59 59.9113 257.333 60.2511C257.076 60.5825 256.948 60.9968 256.948 61.494C256.948 62.2148 257.209 62.7659 257.731 63.147C258.261 63.5199 258.932 63.7063 259.744 63.7063ZM288.971 53.353L284.123 53.6513C284.041 53.237 283.862 52.8641 283.589 52.5327C283.316 52.1929 282.955 51.9237 282.508 51.7248C282.069 51.5176 281.542 51.4141 280.929 51.4141C280.109 51.4141 279.417 51.5881 278.854 51.9361C278.29 52.2758 278.008 52.7315 278.008 53.3033C278.008 53.759 278.191 54.1443 278.555 54.4592C278.92 54.774 279.545 55.0268 280.432 55.2173L283.887 55.9134C285.743 56.2945 287.127 56.9077 288.039 57.7528C288.95 58.598 289.406 59.7083 289.406 61.0838C289.406 62.335 289.037 63.4329 288.3 64.3775C287.57 65.3221 286.568 66.0595 285.292 66.5898C284.024 67.1119 282.562 67.3729 280.904 67.3729C278.377 67.3729 276.364 66.8467 274.864 65.7944C273.372 64.7338 272.498 63.292 272.241 61.4691L277.449 61.1957C277.607 61.9663 277.988 62.5546 278.593 62.9606C279.197 63.3583 279.972 63.5572 280.917 63.5572C281.845 63.5572 282.591 63.379 283.154 63.0227C283.726 62.6581 284.016 62.19 284.024 61.6183C284.016 61.1377 283.813 60.7441 283.415 60.4375C283.017 60.1226 282.404 59.8823 281.576 59.7166L278.269 59.0579C276.405 58.685 275.017 58.0387 274.106 57.119C273.203 56.1992 272.751 55.0268 272.751 53.6016C272.751 52.3752 273.082 51.3188 273.745 50.4322C274.416 49.5456 275.357 48.862 276.567 48.3814C277.785 47.9008 279.21 47.6605 280.842 47.6605C283.253 47.6605 285.151 48.1701 286.535 49.1893C287.927 50.2085 288.739 51.5964 288.971 53.353ZM292.74 67V47.9091H297.873V51.2401H298.072C298.42 50.0552 299.004 49.1603 299.824 48.5554C300.645 47.9422 301.589 47.6357 302.658 47.6357C302.923 47.6357 303.209 47.6522 303.516 47.6854C303.822 47.7185 304.092 47.7641 304.324 47.8221V52.5202C304.075 52.4457 303.731 52.3794 303.292 52.3214C302.853 52.2634 302.451 52.2344 302.086 52.2344C301.308 52.2344 300.612 52.4042 299.998 52.744C299.394 53.0754 298.913 53.5394 298.557 54.136C298.209 54.7326 298.035 55.4203 298.035 56.1992V67H292.74ZM307.061 67V47.9091H312.356V67H307.061ZM309.721 45.4482C308.934 45.4482 308.258 45.1871 307.695 44.6651C307.14 44.1348 306.862 43.5009 306.862 42.7635C306.862 42.0343 307.14 41.4087 307.695 40.8867C308.258 40.3564 308.934 40.0913 309.721 40.0913C310.508 40.0913 311.179 40.3564 311.734 40.8867C312.298 41.4087 312.58 42.0343 312.58 42.7635C312.58 43.5009 312.298 44.1348 311.734 44.6651C311.179 45.1871 310.508 45.4482 309.721 45.4482Z" fill="#888888"/>
<rect x="1086" y="20" width="257" height="257" rx="50" fill="#127369"/>
<path d="M1303 81.146L1253.47 80L1230.44 162.312C1228.9 161.945 1227.33 161.672 1225.73 161.502C1206.3 159.44 1189.43 171.915 1184.6 189.38L1163.41 116.193L1171.5 126.605L1200.01 106.212L1186.7 82.9253H1146.77L1126.53 184.161C1123.23 200.628 1135.83 215.994 1152.62 215.994H1221.75L1261.96 216.925L1303 81.146Z" fill="white" stroke="#10403B" stroke-width="17" stroke-linejoin="round"/>
</g>
<defs>
<clipPath id="clip0_340_1207">
<rect width="1363" height="297" fill="white"/>
</clipPath>
</defs>
</svg>
